<svg xmlns="http://www.w3.org/2000/svg" version="1.0" viewBox="0 0 3208 2756"><path d="M802 1378v689h1604v-689c0-458.7-.3-689-1-689s-1 230-1 688v688H804v-688c0-458-.3-688-1-688s-1 230.3-1 689z"/><path fill="#FFF" d="M804.1 1007.7c.1 175.4.3 317.7.5 316.3.2-1.4.8-9 1.4-17 3.5-44.8 13.9-101.4 27-147.6 33.8-119.6 93.7-227.7 177.3-320.2 16.7-18.5 53.8-54.6 72.1-70.2 31.4-26.8 67.2-53.1 101.5-74.7l8.5-5.3H804l.1 318.7zm392.3-316.6c1.5 2.3 16 16.6 200.6 197.9 63 61.9 135.1 132.7 160.3 157.5 25.1 24.7 46.1 45 46.6 45s20.3-19 43.9-42.3c27-26.5 43.7-42.2 44.9-42.2 5.5 0 42.4 12.1 60.8 20 17.1 7.3 43.1 20.9 54.2 28.5l3.3 2.2-48.3 47.3c-26.5 26.1-73.1 71.9-103.5 101.9l-55.3 54.4-26.2-25.9c-25.3-25.1-46.2-45.6-224.2-220.5-45.1-44.3-102.5-100.6-127.5-125.2-25-24.6-45.9-44.7-46.5-44.7-1.9 0-32 26.6-49.9 44.1-47.7 46.5-84.6 94.1-117.5 151.6-48.5 84.9-79.1 184-86.4 280.2l-1.2 15.6-60.3.3-60.2.2v80l60.3.2 60.2.3.7 10c1 15.1 2.7 30.2 5.4 49 21.2 146 90.6 282.3 196 385.6 22.5 22 50.7 46.9 53.1 46.9.5 0 19.7-18.5 42.8-41.1 23.1-22.7 45.7-44.8 50.2-49.2l8.1-8 11.4 8c25 17.6 48.1 31.2 76.6 45.1 10.5 5.1 19.2 9.5 19.2 9.7 0 .2-37.2 36.9-82.7 81.6-45.6 44.7-89.3 87.7-97.3 95.6l-14.5 14.3h821l-12.5-12.3c-51.7-50.7-304.5-299.1-345.8-339.7-28.3-27.8-51.7-50.5-52.2-50.5s-20.2 19.1-44 42.4l-43.1 42.3-3.7-.6c-5.9-.9-29.5-8.3-44.2-13.8-20.5-7.6-54-24.3-68.7-34.3l-3.3-2.2 75.2-73.9c41.4-40.6 88-86.4 103.5-101.8l28.3-27.9 58.7 57.9c32.4 31.9 97.1 95.5 143.8 141.5 46.8 45.9 115.6 113.5 152.9 150.2 37.3 36.7 68.2 66.7 68.6 66.7 2.4 0 29.9-24.1 50.8-44.5 91.3-88.9 154.8-199.1 185.6-322.2 9-35.8 16-79.5 18.4-114.8l.7-10 60.3-.3 60.2-.2v-80l-60.2-.2-60.3-.3-.7-10c-10.5-155.2-79-308.7-187.8-420.9-24.6-25.3-64.5-61.3-67-60.4-.5.2-23.3 22.1-50.6 48.8-27.2 26.7-50.1 48.5-50.8 48.4-.7-.1-5.2-3-10.2-6.5-23.5-16.9-45.4-29.9-75.4-44.7l-21.4-10.5 56.4-55.6c31.1-30.5 74.7-73.6 97-95.8l40.5-40.3h-818.6l1.5 2.1zM1651 858c109 10.8 205.6 51.1 288.3 120.3 28.8 24.2 61.2 58.6 83.4 88.7 38.8 52.6 69 115.3 84.8 176.5 2 7.7 3.9 14.8 4.1 15.7.5 1.7-2.9 1.8-62 1.8h-62.4l-3.3-9.8c-39.4-119.3-134.6-214.6-253.9-254.1-43.1-14.2-77.3-19.6-125.5-19.6-31.5 0-43.1.9-68 5l-14 2.4-21.5-21.2c-50.9-50.2-76-75.2-76-75.9 0-1 33.1-11.4 50.5-15.8 29.1-7.4 63.4-12.8 93.5-15 15.3-1.1 67.6-.5 82 1zm-363.1 120.2c4.7 4.6 24.2 23.7 43.3 42.5l34.8 34.1-11.8 9.5c-75.6 60.9-126.2 145.4-143.6 239.7-4.9 26.8-6 40.3-6 73s1.1 46.2 6 73c26.5 143.6 129.6 261.5 268.9 307.4 41.7 13.7 76.4 19.1 124 19.1 31.4 0 42.9-.8 68-5l13.9-2.3 48.8 48c26.8 26.4 48.8 48.4 48.8 48.8 0 1.8-43.6 14.8-67 19.9-138.2 30.3-283.1 3.2-400.4-75.1-28.6-19.1-50.6-37-75.8-61.7-40.9-40-72.7-83-98.9-133.6-69-133.6-76.6-292.1-20.7-432 7.1-17.7 22.9-50.3 32.3-66.5 8.8-15.3 29.4-45.9 39.8-59.3 20.6-26.3 49.5-56.5 74.2-77.5 6.6-5.6 12.2-10.2 12.4-10.2.3 0 4.3 3.7 9 8.2zm823.7 516.5c-.2 1-2.1 8.1-4.1 15.8-8.4 32.4-19.8 63-35.5 95-27.2 55.4-60.2 101.1-104.6 144.6-14 13.7-37.1 33.9-38.7 33.9-.8 0-17.8-16.5-75.7-73.7l-11.5-11.3 2.4-1.6c15-10.5 46.2-39.6 62-57.9 35-40.2 61.6-86.9 78-136.8l3.3-9.7h62.4c59.1 0 62.5.1 62 1.7zM2019 691.2c27.8 17 63.9 42.7 91 64.7 40.1 32.5 85.8 78.6 118.6 119.6 103.1 128.6 162.2 279.8 174.7 446.5.2 2.5.4-138.9.5-314.3l.2-318.7h-388.5l3.5 2.2zm-1214.8 1055L804 2065l194.3-.1c150.6 0 193.8-.3 192.4-1.2-1.1-.7-9.6-6.2-19-12.2A805.975 805.975 0 0 1 941.9 1828c-79.7-116.5-126.3-251.1-137.2-396-.2-2.5-.4 138.9-.5 314.2zm1598.4-307.4c-1.4 23.9-6.9 64.4-12.7 93.7-25.1 127.1-79.7 244.1-161.3 346-56.1 70.1-128.4 133.9-204.6 180.7l-9.4 5.8H2404v-318.5c0-175.2-.2-318.5-.3-318.5-.2 0-.7 4.9-1.1 10.8z"/><path fill="#CCC" d="M1194 689.4c0 .2.8 1 1.8 1.7 1.5 1.3 1.6 1.2.3-.4s-2.1-2.1-2.1-1.3zm793.5 25.8-26 26.3 26.3-26c24.3-24.1 26.7-26.5 25.9-26.5-.1 0-11.9 11.8-26.2 26.2zm-750 17.8c8.2 8.2 15.2 15 15.5 15 .2 0-6.3-6.8-14.5-15-8.2-8.3-15.2-15-15.5-15-.2 0 6.3 6.7 14.5 15zm-140.6 23.7c-1.3 1.6-1.2 1.7.4.4.9-.7 1.7-1.5 1.7-1.7 0-.8-.8-.3-2.1 1.3zm1012.1-1.3c0 .2.8 1 1.8 1.7 1.5 1.3 1.6 1.2.3-.4s-2.1-2.1-2.1-1.3zm-1024.1 11.3c-1.3 1.6-1.2 1.7.4.4.9-.7 1.7-1.5 1.7-1.7 0-.8-.8-.3-2.1 1.3zm1036.1-1.3c0 .2.8 1 1.8 1.7 1.5 1.3 1.6 1.2.3-.4s-2.1-2.1-2.1-1.3zm-203.5 18.8-14 14.3 14.3-14c7.8-7.7 14.2-14.1 14.2-14.2 0-.8-1.5.7-14.5 13.9zm-839.6-11.5c-1.3 1.6-1.2 1.7.4.4.9-.7 1.7-1.5 1.7-1.7 0-.8-.8-.3-2.1 1.3zm1051.6.3c1 1.1 2 2 2.3 2 .3 0-.3-.9-1.3-2s-2-2-2.3-2c-.3 0 .3.9 1.3 2zM1296 790.2c7.4 7.6 13.6 13.8 13.7 13.8.8 0-.7-1.5-13.4-14l-13.8-13.5 13.5 13.7zm-226.6-10-1.9 2.3 2.3-1.9c2.1-1.8 2.7-2.6 1.9-2.6-.2 0-1.2 1-2.3 2.2zm1068.1-.2c1 1.1 2 2 2.3 2 .3 0-.3-.9-1.3-2s-2-2-2.3-2c-.3 0 .3.9 1.3 2zm-1082 13.2-4 4.3 4.3-4c3.9-3.6 4.7-4.5 3.9-4.5-.2 0-2.1 1.9-4.2 4.2zm1096-.2c2.1 2.2 4.1 4 4.4 4 .3 0-1.3-1.8-3.4-4-2.1-2.2-4.1-4-4.4-4-.3 0 1.3 1.8 3.4 4zM1861 839.7l-13.5 13.8 13.8-13.5c12.7-12.5 14.2-14 13.4-14-.1 0-6.3 6.2-13.7 13.7zm-843.1-9-2.4 2.8 2.8-2.4c1.5-1.4 2.7-2.6 2.7-2.8 0-.8-.8-.1-3.1 2.4zm1171.1-.2c1.3 1.4 2.6 2.5 2.8 2.5.3 0-.5-1.1-1.8-2.5s-2.6-2.5-2.8-2.5c-.3 0 .5 1.1 1.8 2.5zm-837 14.7c12.5 12.8 14 14.3 14 13.5 0-.1-6.2-6.3-13.7-13.7l-13.8-13.5 13.5 13.7zm-344.1-3.5-2.4 2.8 2.8-2.4c1.5-1.4 2.7-2.6 2.7-2.8 0-.8-.8-.1-3.1 2.4zm1191.1-.2c1.3 1.4 2.6 2.5 2.8 2.5.3 0-.5-1.1-1.8-2.5s-2.6-2.5-2.8-2.5c-.3 0 .5 1.1 1.8 2.5zm-1019.9 2.7c.3.2 6.1 5.7 12.9 12.3l12.5 12-12-12.3c-6.6-6.7-12.4-12.2-12.9-12.2s-.7.1-.5.2zm837.4 11-11 11.3 11.5-11c6.3-6.1 11.6-11.1 11.9-11.3.2-.1 0-.2-.5-.2s-5.9 5.1-11.9 11.2zm191-4.2c1 1.1 2 2 2.3 2 .3 0-.3-.9-1.3-2s-2-2-2.3-2c-.3 0 .3.9 1.3 2zm-1208.6.7c-1.3 1.6-1.2 1.7.4.4 1.6-1.3 2.1-2.1 1.3-2.1-.2 0-1 .8-1.7 1.7zm170 1c-1.3 1.6-1.2 1.7.4.4.9-.7 1.7-1.5 1.7-1.7 0-.8-.8-.3-2.1 1.3zm1043.1 3.7c0 .2.8 1 1.8 1.7 1.5 1.3 1.6 1.2.3-.4s-2.1-2.1-2.1-1.3zm-1219.1 2.3c-1.3 1.6-1.2 1.7.4.4.9-.7 1.7-1.5 1.7-1.7 0-.8-.8-.3-2.1 1.3zm169 0c-1.3 1.6-1.2 1.7.4.4.9-.7 1.7-1.5 1.7-1.7 0-.8-.8-.3-2.1 1.3zm882.1-1.3c0 .2.8 1 1.8 1.7 1.5 1.3 1.6 1.2.3-.4s-2.1-2.1-2.1-1.3zm-1056.1 7.3c-1.3 1.6-1.2 1.7.4.4 1.6-1.3 2.1-2.1 1.3-2.1-.2 0-1 .8-1.7 1.7zm167 0c-1.3 1.6-1.2 1.7.4.4 1.6-1.3 2.1-2.1 1.3-2.1-.2 0-1 .8-1.7 1.7zm896.1-1.3c0 .2.8 1 1.8 1.7 1.5 1.3 1.6 1.2.3-.4s-2.1-2.1-2.1-1.3zm167 0c0 .2.8 1 1.8 1.7 1.5 1.3 1.6 1.2.3-.4s-2.1-2.1-2.1-1.3zm-1073.6 10.8-2.9 3.3 3.3-2.9c1.7-1.7 3.2-3.1 3.2-3.3 0-.8-.8-.1-3.6 2.9zm918.6.3c1.9 1.9 3.6 3.5 3.9 3.5.3 0-1-1.6-2.9-3.5s-3.6-3.5-3.9-3.5c-.3 0 1 1.6 2.9 3.5zm-1084.1 1.2c-1.3 1.6-1.2 1.7.4.4.9-.7 1.7-1.5 1.7-1.7 0-.8-.8-.3-2.1 1.3zm-4 5c-1.3 1.6-1.2 1.7.4.4 1.6-1.3 2.1-2.1 1.3-2.1-.2 0-1 .8-1.7 1.7zm146.1 16-12.5 12.8 12.8-12.5c11.8-11.6 13.2-13 12.4-13-.1 0-5.8 5.7-12.7 12.7zm964.5-.7c6.6 6.6 12.2 12 12.5 12 .2 0-4.9-5.4-11.5-12s-12.2-12-12.5-12c-.2 0 4.9 5.4 11.5 12zm-673 9c8.2 8.2 15.2 15 15.5 15 .2 0-6.3-6.8-14.5-15-8.2-8.3-15.2-15-15.5-15-.2 0 6.3 6.7 14.5 15zm552.5.7-13.5 13.8 13.8-13.5c12.7-12.5 14.2-14 13.4-14-.1 0-6.3 6.2-13.7 13.7zm-714.5 8.3c8.2 8.2 15.2 15 15.5 15 .2 0-6.3-6.8-14.5-15-8.2-8.3-15.2-15-15.5-15-.2 0 6.3 6.7 14.5 15zm-150.1 4.2-1.9 2.3 2.3-1.9c2.1-1.8 2.7-2.6 1.9-2.6-.2 0-1.2 1-2.3 2.2zm1006.1-.2c1 1.1 2 2 2.3 2 .3 0-.3-.9-1.3-2s-2-2-2.3-2c-.3 0 .3.9 1.3 2zm-1014.1 9.2-1.9 2.3 2.3-1.9c2.1-1.8 2.7-2.6 1.9-2.6-.2 0-1.2 1-2.3 2.2zm1023.1.8c1 1.1 2 2 2.3 2 .3 0-.3-.9-1.3-2s-2-2-2.3-2c-.3 0 .3.9 1.3 2zm-646.5 4.5c1.9 1.9 3.6 3.5 3.9 3.5.3 0-1-1.6-2.9-3.5s-3.6-3.5-3.9-3.5c-.3 0 1 1.6 2.9 3.5zm-384.1 3.2c-1.3 1.6-1.2 1.7.4.4.9-.7 1.7-1.5 1.7-1.7 0-.8-.8-.3-2.1 1.3zm1036.1-1.3c0 .2.8 1 1.8 1.7 1.5 1.3 1.6 1.2.3-.4s-2.1-2.1-2.1-1.3zm-1041.1 7.3c-1.3 1.6-1.2 1.7.4.4 1.6-1.3 2.1-2.1 1.3-2.1-.2 0-1 .8-1.7 1.7zm1046.1-1.3c0 .2.8 1 1.8 1.7 1.5 1.3 1.6 1.2.3-.4s-2.1-2.1-2.1-1.3zM1470.5 962c7.7 7.7 14.2 14 14.5 14 .2 0-5.8-6.3-13.5-14s-14.2-14-14.5-14c-.2 0 5.8 6.3 13.5 14zm-399.6-9.3c-1.3 1.6-1.2 1.7.4.4.9-.7 1.7-1.5 1.7-1.7 0-.8-.8-.3-2.1 1.3zm240.6 21.3c7.7 7.7 14.2 14 14.5 14 .2 0-5.8-6.3-13.5-14s-14.2-14-14.5-14c-.2 0 5.8 6.3 13.5 14zm-9.5 18.3c0 .2 1.5 1.6 3.3 3.3l3.2 2.9-2.9-3.3c-2.8-3-3.6-3.7-3.6-2.9zm225 25.2c8 8 14.7 14.5 15 14.5.2 0-6-6.5-14-14.5s-14.7-14.5-15-14.5c-.2 0 6 6.5 14 14.5zm155-1.8-8.5 8.8 8.8-8.5c8.1-7.9 9.2-9 8.4-9-.1 0-4.1 3.9-8.7 8.7zm-314 13.5c12.5 12.8 14 14.3 14 13.5 0-.1-6.2-6.3-13.7-13.7l-13.8-13.5 13.5 13.7zm-6 22.3c1.9 1.9 3.6 3.5 3.9 3.5.3 0-1-1.6-2.9-3.5s-3.6-3.5-3.9-3.5c-.3 0 1 1.6 2.9 3.5zm264.5 18.5c-8.2 8.2-14.7 15-14.5 15 .3 0 7.3-6.8 15.5-15 8.2-8.3 14.7-15 14.5-15-.3 0-7.3 6.7-15.5 15zm-42 4c7.1 7.1 13.2 13 13.5 13 .2 0-5.4-5.9-12.5-13-7.1-7.2-13.2-13-13.5-13-.2 0 5.4 5.8 12.5 13zm-164 7c7.7 7.7 14.2 14 14.5 14 .2 0-5.8-6.3-13.5-14s-14.2-14-14.5-14c-.2 0 5.8 6.3 13.5 14zm366.5-.3-13.5 13.8 13.8-13.5c12.7-12.5 14.2-14 13.4-14-.1 0-6.3 6.2-13.7 13.7zm-309.5 56.3c7.7 7.7 14.2 14 14.5 14 .2 0-5.8-6.3-13.5-14s-14.2-14-14.5-14c-.2 0 5.8 6.3 13.5 14zm252.5-.3-13.5 13.8 13.8-13.5c12.7-12.5 14.2-14 13.4-14-.1 0-6.3 6.2-13.7 13.7zm-53 52-14.5 14.8 14.8-14.5c8.1-8 14.7-14.6 14.7-14.7 0-.8-1.6.7-15 14.4zm-140 6.8c8 8 14.7 14.5 15 14.5.2 0-6-6.5-14-14.5s-14.7-14.5-15-14.5c-.2 0 6 6.5 14 14.5zm-719.9 30.1c0 1.1.3 1.4.6.6.3-.7.2-1.6-.1-1.9-.3-.4-.6.2-.5 1.3zm800.7 21.1-13.8 13.8-10.7-10.5-10.8-10.5 10.8 11 10.7 11 14.2-14.3c7.9-7.8 14.1-14.2 13.8-14.2-.3 0-6.7 6.2-14.2 13.7zm-802.7-10.1c0 1.1.3 1.4.6.6.3-.7.2-1.6-.1-1.9-.3-.4-.6.2-.5 1.3zm1577 0c0 1.1.3 1.4.6.6.3-.7.2-1.6-.1-1.9-.3-.4-.6.2-.5 1.3zm-1578 6c0 1.1.3 1.4.6.6.3-.7.2-1.6-.1-1.9-.3-.4-.6.2-.5 1.3zm1579 0c0 1.1.3 1.4.6.6.3-.7.2-1.6-.1-1.9-.3-.4-.6.2-.5 1.3zm-1580 6c0 1.1.3 1.4.6.6.3-.7.2-1.6-.1-1.9-.3-.4-.6.2-.5 1.3zm1581 0c0 1.1.3 1.4.6.6.3-.7.2-1.6-.1-1.9-.3-.4-.6.2-.5 1.3zm-1582 6c0 1.1.3 1.4.6.6.3-.7.2-1.6-.1-1.9-.3-.4-.6.2-.5 1.3zm1583 0c0 1.1.3 1.4.6.6.3-.7.2-1.6-.1-1.9-.3-.4-.6.2-.5 1.3zm-1584 7c0 1.1.3 1.4.6.6.3-.7.2-1.6-.1-1.9-.3-.4-.6.2-.5 1.3zm1585 0c0 1.1.3 1.4.6.6.3-.7.2-1.6-.1-1.9-.3-.4-.6.2-.5 1.3zm-1464 2c0 1.1.3 1.4.6.6.3-.7.2-1.6-.1-1.9-.3-.4-.6.2-.5 1.3zm1343 0c0 1.1.3 1.4.6.6.3-.7.2-1.6-.1-1.9-.3-.4-.6.2-.5 1.3zm-1465 5c0 1.1.3 1.4.6.6.3-.7.2-1.6-.1-1.9-.3-.4-.6.2-.5 1.3zm1587 0c0 1.1.3 1.4.6.6.3-.7.2-1.6-.1-1.9-.3-.4-.6.2-.5 1.3zm-1466 1c0 1.1.3 1.4.6.6.3-.7.2-1.6-.1-1.9-.3-.4-.6.2-.5 1.3zm1345 0c0 1.1.3 1.4.6.6.3-.7.2-1.6-.1-1.9-.3-.4-.6.2-.5 1.3zm-1467 6c0 1.1.3 1.4.6.6.3-.7.2-1.6-.1-1.9-.3-.4-.6.2-.5 1.3zm1589.1.4c0 1.4.2 1.9.5 1.2.2-.6.2-1.8 0-2.5-.3-.6-.5-.1-.5 1.3zm-1468.1.6c0 1.1.3 1.4.6.6.3-.7.2-1.6-.1-1.9-.3-.4-.6.2-.5 1.3zm1347 0c0 1.1.3 1.4.6.6.3-.7.2-1.6-.1-1.9-.3-.4-.6.2-.5 1.3zM808.2 1284c0 1.4.2 1.9.5 1.2.2-.6.2-1.8 0-2.5-.3-.6-.5-.1-.5 1.3zm120.9-.4c0 1.1.3 1.4.6.6.3-.7.2-1.6-.1-1.9-.3-.4-.6.2-.5 1.3zm1349 0c0 1.1.3 1.4.6.6.3-.7.2-1.6-.1-1.9-.3-.4-.6.2-.5 1.3zm121.1.4c0 1.4.2 1.9.5 1.2.2-.6.2-1.8 0-2.5-.3-.6-.5-.1-.5 1.3zm-1471.1 6.6c0 1.1.3 1.4.6.6.3-.7.2-1.6-.1-1.9-.3-.4-.6.2-.5 1.3zm1351 0c0 1.1.3 1.4.6.6.3-.7.2-1.6-.1-1.9-.3-.4-.6.2-.5 1.3zM807.2 1293c0 1.4.2 1.9.5 1.2.2-.6.2-1.8 0-2.5-.3-.6-.5-.1-.5 1.3zm1593 0c0 1.4.2 1.9.5 1.2.2-.6.2-1.8 0-2.5-.3-.6-.5-.1-.5 1.3zm-1473 6c0 1.4.2 1.9.5 1.2.2-.6.2-1.8 0-2.5-.3-.6-.5-.1-.5 1.3zm1353 0c0 1.4.2 1.9.5 1.2.2-.6.2-1.8 0-2.5-.3-.6-.5-.1-.5 1.3zm-1474 4c0 1.4.2 1.9.5 1.2.2-.6.2-1.8 0-2.5-.3-.6-.5-.1-.5 1.3zm1595 0c0 1.4.2 1.9.5 1.2.2-.6.2-1.8 0-2.5-.3-.6-.5-.1-.5 1.3zm-1475 5c0 1.4.2 1.9.5 1.2.2-.6.2-1.8 0-2.5-.3-.6-.5-.1-.5 1.3zm1355 0c0 1.4.2 1.9.5 1.2.2-.6.2-1.8 0-2.5-.3-.6-.5-.1-.5 1.3zm-1476 7c0 1.9.2 2.7.5 1.7.2-.9.2-2.5 0-3.5-.3-.9-.5-.1-.5 1.8zm1597 0c0 1.9.2 2.7.5 1.7.2-.9.2-2.5 0-3.5-.3-.9-.5-.1-.5 1.8zm-1477 4.5c0 1.6.2 2.2.5 1.2.2-.9.2-2.3 0-3-.3-.6-.5.1-.5 1.8zm1357 0c0 1.6.2 2.2.5 1.2.2-.9.2-2.3 0-3-.3-.6-.5.1-.5 1.8zm-1477.9 10c0 2.2.2 3 .4 1.7.2-1.2.2-3 0-4-.3-.9-.5.1-.4 2.3zm1599 .5c0 2.5.2 3.5.4 2.2.2-1.2.2-3.2 0-4.5-.2-1.2-.4-.2-.4 2.3zm-1479 2.5c0 2.2.2 3 .4 1.7.2-1.2.2-3 0-4-.3-.9-.5.1-.4 2.3zm1358.9.5c0 1.9.2 2.7.5 1.7.2-.9.2-2.5 0-3.5-.3-.9-.5-.1-.5 1.8zm-1359 88c0 1.9.2 2.7.5 1.7.2-.9.2-2.5 0-3.5-.3-.9-.5-.1-.5 1.8zm1359 0c0 1.9.2 2.7.5 1.7.2-.9.2-2.5 0-3.5-.3-.9-.5-.1-.5 1.8zm120.1 3c0 2.5.2 3.5.4 2.2.2-1.2.2-3.2 0-4.5-.2-1.2-.4-.2-.4 2.3zm-1599 .5c0 2.2.2 3 .4 1.7.2-1.2.2-3 0-4-.3-.9-.5.1-.4 2.3zm120.9 10c0 1.6.2 2.2.5 1.2.2-.9.2-2.3 0-3-.3-.6-.5.1-.5 1.8zm1357 0c0 1.6.2 2.2.5 1.2.2-.9.2-2.3 0-3-.3-.6-.5.1-.5 1.8zm-1477 4.5c0 1.9.2 2.7.5 1.7.2-.9.2-2.5 0-3.5-.3-.9-.5-.1-.5 1.8zm1597 0c0 1.9.2 2.7.5 1.7.2-.9.2-2.5 0-3.5-.3-.9-.5-.1-.5 1.8zm-1476 7c0 1.4.2 1.9.5 1.2.2-.6.2-1.8 0-2.5-.3-.6-.5-.1-.5 1.3zm1355 0c0 1.4.2 1.9.5 1.2.2-.6.2-1.8 0-2.5-.3-.6-.5-.1-.5 1.3zm-1475 5c0 1.4.2 1.9.5 1.2.2-.6.2-1.8 0-2.5-.3-.6-.5-.1-.5 1.3zm1595 0c0 1.4.2 1.9.5 1.2.2-.6.2-1.8 0-2.5-.3-.6-.5-.1-.5 1.3zm-1474 4c0 1.4.2 1.9.5 1.2.2-.6.2-1.8 0-2.5-.3-.6-.5-.1-.5 1.3zm1353 0c0 1.4.2 1.9.5 1.2.2-.6.2-1.8 0-2.5-.3-.6-.5-.1-.5 1.3zm-1473 6c0 1.4.2 1.9.5 1.2.2-.6.2-1.8 0-2.5-.3-.6-.5-.1-.5 1.3zm1593 0c0 1.4.2 1.9.5 1.2.2-.6.2-1.8 0-2.5-.3-.6-.5-.1-.5 1.3zm-1472.1 2.6c0 1.1.3 1.4.6.6.3-.7.2-1.6-.1-1.9-.3-.4-.6.2-.5 1.3zm1351 0c0 1.1.3 1.4.6.6.3-.7.2-1.6-.1-1.9-.3-.4-.6.2-.5 1.3zM808.2 1470c0 1.4.2 1.9.5 1.2.2-.6.2-1.8 0-2.5-.3-.6-.5-.1-.5 1.3zm1591 0c0 1.4.2 1.9.5 1.2.2-.6.2-1.8 0-2.5-.3-.6-.5-.1-.5 1.3zm-121.1.6c0 1.1.3 1.4.6.6.3-.7.2-1.6-.1-1.9-.3-.4-.6.2-.5 1.3zM809.2 1478c0 1.4.2 1.9.5 1.2.2-.6.2-1.8 0-2.5-.3-.6-.5-.1-.5 1.3zm120.9-.4c0 1.1.3 1.4.6.6.3-.7.2-1.6-.1-1.9-.3-.4-.6.2-.5 1.3zm1347 0c0 1.1.3 1.4.6.6.3-.7.2-1.6-.1-1.9-.3-.4-.6.2-.5 1.3zm121.1.4c0 1.4.2 1.9.5 1.2.2-.6.2-1.8 0-2.5-.3-.6-.5-.1-.5 1.3zm-1467.1 6.6c0 1.1.3 1.4.6.6.3-.7.2-1.6-.1-1.9-.3-.4-.6.2-.5 1.3zm1345 0c0 1.1.3 1.4.6.6.3-.7.2-1.6-.1-1.9-.3-.4-.6.2-.5 1.3zm-1466 1c0 1.1.3 1.4.6.6.3-.7.2-1.6-.1-1.9-.3-.4-.6.2-.5 1.3zm1587 0c0 1.1.3 1.4.6.6.3-.7.2-1.6-.1-1.9-.3-.4-.6.2-.5 1.3zm-1465 5c0 1.1.3 1.4.6.6.3-.7.2-1.6-.1-1.9-.3-.4-.6.2-.5 1.3zm1343 0c0 1.1.3 1.4.6.6.3-.7.2-1.6-.1-1.9-.3-.4-.6.2-.5 1.3zm-1464 2c0 1.1.3 1.4.6.6.3-.7.2-1.6-.1-1.9-.3-.4-.6.2-.5 1.3zm1585 0c0 1.1.3 1.4.6.6.3-.7.2-1.6-.1-1.9-.3-.4-.6.2-.5 1.3zm-802.6 10.6-10 10.3 10.3-10 10.2-10 13.8 13.5 13.7 13.5-13.5-13.8c-7.4-7.5-13.7-13.7-14-13.7-.3 0-5 4.6-10.5 10.2zm-781.4-3.6c0 1.1.3 1.4.6.6.3-.7.2-1.6-.1-1.9-.3-.4-.6.2-.5 1.3zm1583 0c0 1.1.3 1.4.6.6.3-.7.2-1.6-.1-1.9-.3-.4-.6.2-.5 1.3zm-1582 6c0 1.1.3 1.4.6.6.3-.7.2-1.6-.1-1.9-.3-.4-.6.2-.5 1.3zm1581 0c0 1.1.3 1.4.6.6.3-.7.2-1.6-.1-1.9-.3-.4-.6.2-.5 1.3zm-1580 6c0 1.1.3 1.4.6.6.3-.7.2-1.6-.1-1.9-.3-.4-.6.2-.5 1.3zm1579 0c0 1.1.3 1.4.6.6.3-.7.2-1.6-.1-1.9-.3-.4-.6.2-.5 1.3zm-1578 6c0 1.1.3 1.4.6.6.3-.7.2-1.6-.1-1.9-.3-.4-.6.2-.5 1.3zm1577 0c0 1.1.3 1.4.6.6.3-.7.2-1.6-.1-1.9-.3-.4-.6.2-.5 1.3zm-854.6 40.4c-8.2 8.2-14.7 15-14.5 15 .3 0 7.3-6.8 15.5-15 8.2-8.3 14.7-15 14.5-15-.3 0-7.3 6.7-15.5 15zm139.5 7.5c8.5 8.5 15.7 15.5 16 15.5.3 0-6.5-7-15-15.5s-15.7-15.5-16-15.5c-.3 0 6.5 7 15 15.5zm-199.5 51.7-14 14.3 14.3-14c7.8-7.7 14.2-14.1 14.2-14.2 0-.8-1.5.7-14.5 13.9zm259 6.8c7.7 7.7 14.2 14 14.5 14 .2 0-5.8-6.3-13.5-14s-14.2-14-14.5-14c-.2 0 5.8 6.3 13.5 14zm155.9 30.2-1.9 2.3 2.3-1.9c1.2-1.1 2.2-2.1 2.2-2.3 0-.8-.8-.2-2.6 1.9zm-471.9 19-14 14.3 14.3-14c7.8-7.7 14.2-14.1 14.2-14.2 0-.8-1.5.7-14.5 13.9zm373 6.8c7.7 7.7 14.2 14 14.5 14 .2 0-5.8-6.3-13.5-14s-14.2-14-14.5-14c-.2 0 5.8 6.3 13.5 14zm-212 3.2-14 14.3 14.3-14c7.8-7.7 14.2-14.1 14.2-14.2 0-.8-1.5.7-14.5 13.9zm50.5 6c12.5 12.8 14 14.3 14 13.5 0-.1-6.2-6.3-13.7-13.7l-13.8-13.5 13.5 13.7zm225 25.1c0 .2 1.5 1.6 3.3 3.3l3.2 2.9-2.9-3.3c-2.8-3-3.6-3.7-3.6-2.9zm-329 21.4-11.5 11.8 11.8-11.5c10.9-10.7 12.2-12 11.4-12-.1 0-5.4 5.3-11.7 11.7zm324 1.5c7.4 7.6 13.6 13.8 13.7 13.8.8 0-.7-1.5-13.4-14l-13.8-13.5 13.5 13.7zm-162.5 8.8c8.8 8.8 16.2 16 16.5 16 .3 0-6.7-7.2-15.5-16s-16.2-16-16.5-16c-.3 0 6.7 7.2 15.5 16zm-4.5 23.4c0 .2.8 1 1.8 1.7 1.5 1.3 1.6 1.2.3-.4s-2.1-2.1-2.1-1.3zm228-.1c0 .2 1.5 1.6 3.3 3.3l3.2 2.9-2.9-3.3c-2.8-3-3.6-3.7-3.6-2.9zm-4 24.2c8 8 14.7 14.5 15 14.5.2 0-6-6.5-14-14.5s-14.7-14.5-15-14.5c-.2 0 6 6.5 14 14.5zm-161.5 9.5c7.1 7.1 13.2 13 13.5 13 .2 0-5.4-5.9-12.5-13-7.1-7.2-13.2-13-13.5-13-.2 0 5.4 5.8 12.5 13zm-677.5-2.6c0 .2.8 1 1.8 1.7 1.5 1.3 1.6 1.2.3-.4s-2.1-2.1-2.1-1.3zm1061.9 6.3c-1.3 1.6-1.2 1.7.4.4 1.6-1.3 2.1-2.1 1.3-2.1-.2 0-1 .8-1.7 1.7zm-1052.9 4.7c0 .2.8 1 1.8 1.7 1.5 1.3 1.6 1.2.3-.4s-2.1-2.1-2.1-1.3zm1047.9 1.3c-1.3 1.6-1.2 1.7.4.4 1.6-1.3 2.1-2.1 1.3-2.1-.2 0-1 .8-1.7 1.7zm-1042.9 4.7c0 .2.8 1 1.8 1.7 1.5 1.3 1.6 1.2.3-.4s-2.1-2.1-2.1-1.3zm1030.9 9.3-2.4 2.8 2.8-2.4c1.5-1.4 2.7-2.6 2.7-2.8 0-.8-.8-.1-3.1 2.4zm-1022.4.3c1 1.1 2 2 2.3 2 .3 0-.3-.9-1.3-2s-2-2-2.3-2c-.3 0 .3.9 1.3 2zm649.5-1.7c0 .2 1.5 1.6 3.3 3.3l3.2 2.9-2.9-3.3c-2.8-3-3.6-3.7-3.6-2.9zm-496.5 19.9-14 14.3 14.3-14c13.2-13 14.7-14.5 13.9-14.5-.1 0-6.5 6.4-14.2 14.2zm-145-9.2c1 1.1 2 2 2.3 2 .3 0-.3-.9-1.3-2s-2-2-2.3-2c-.3 0 .3.9 1.3 2zm1005.9.2-1.9 2.3 2.3-1.9c2.1-1.8 2.7-2.6 1.9-2.6-.2 0-1.2 1-2.3 2.2zm-138.9 14.8c7.7 7.7 14.2 14 14.5 14 .2 0-5.8-6.3-13.5-14s-14.2-14-14.5-14c-.2 0 5.8 6.3 13.5 14zm-164.5 6.5c8 8 14.7 14.5 15 14.5.2 0-6-6.5-14-14.5s-14.7-14.5-15-14.5c-.2 0 6 6.5 14 14.5zm283 .2-12.5 12.8 12.8-12.5c7-6.9 12.7-12.6 12.7-12.7 0-.8-1.4.6-13 12.4zm-964.5.3c6.6 6.6 12.2 12 12.5 12 .2 0-4.9-5.4-11.5-12s-12.2-12-12.5-12c-.2 0 4.9 5.4 11.5 12zM974 1872.4c0 .2.8 1 1.8 1.7 1.5 1.3 1.6 1.2.3-.4s-2.1-2.1-2.1-1.3zm170 7.1c1.9 1.9 3.6 3.5 3.9 3.5.3 0-1-1.6-2.9-3.5s-3.6-3.5-3.9-3.5c-.3 0 1 1.6 2.9 3.5zm-166-2.1c0 .2.8 1 1.8 1.7 1.5 1.3 1.6 1.2.3-.4s-2.1-2.1-2.1-1.3zm1084.4 2.8-2.9 3.3 3.3-2.9c1.7-1.7 3.2-3.1 3.2-3.3 0-.8-.8-.1-3.6 2.9zm-871.5 18.3c-6.4 6.3-11.3 11.5-11 11.5.4 0 5.8-5.2 12.1-11.5s11.2-11.5 11-11.5c-.3 0-5.7 5.2-12.1 11.5zM987 1888.4c0 .2.8 1 1.8 1.7 1.5 1.3 1.6 1.2.3-.4s-2.1-2.1-2.1-1.3zm167 0c0 .2.8 1 1.8 1.7 1.5 1.3 1.6 1.2.3-.4s-2.1-2.1-2.1-1.3zm897.9 1.3c-1.3 1.6-1.2 1.7.4.4 1.6-1.3 2.1-2.1 1.3-2.1-.2 0-1 .8-1.7 1.7zm167 0c-1.3 1.6-1.2 1.7.4.4 1.6-1.3 2.1-2.1 1.3-2.1-.2 0-1 .8-1.7 1.7zm-199.7 11.8c7.3 7.4 9 8.7 10 7.6 1.1-1.1 1-1.2-.1-.6-.9.5-4.1-1.9-10-7.6l-8.6-8.4 8.7 9zm-858.2-7.1c0 .2.8 1 1.8 1.7 1.5 1.3 1.6 1.2.3-.4s-2.1-2.1-2.1-1.3zm883.9 1.3c-1.3 1.6-1.2 1.7.4.4.9-.7 1.7-1.5 1.7-1.7 0-.8-.8-.3-2.1 1.3zm-1051.9-.3c0 .2.8 1 1.8 1.7 1.5 1.3 1.6 1.2.3-.4s-2.1-2.1-2.1-1.3zm358 14.3-14.5 14.8 14.8-14.5c13.7-13.4 15.2-15 14.4-15-.1 0-6.7 6.6-14.7 14.7zm861.9-13c-1.3 1.6-1.2 1.7.4.4.9-.7 1.7-1.5 1.7-1.7 0-.8-.8-.3-2.1 1.3zm-352.4 17.3c7.7 7.7 14.2 14 14.5 14 .2 0-5.8-6.3-13.5-14s-14.2-14-14.5-14c-.2 0 5.8 6.3 13.5 14zm177.4-12.3c-1.3 1.6-1.2 1.7.4.4.9-.7 1.7-1.5 1.7-1.7 0-.8-.8-.3-2.1 1.3zm-1039.9-.3c0 .2.8 1 1.8 1.7 1.5 1.3 1.6 1.2.3-.4s-2.1-2.1-2.1-1.3zm1209.4 1.8-1.9 2.3 2.3-1.9c2.1-1.8 2.7-2.6 1.9-2.6-.2 0-1.2 1-2.3 2.2zm-1199.4 9.3c1.3 1.4 2.6 2.5 2.8 2.5.3 0-.5-1.1-1.8-2.5s-2.6-2.5-2.8-2.5c-.3 0 .5 1.1 1.8 2.5zm1190.4.7-2.9 3.3 3.3-2.9c3-2.8 3.7-3.6 2.9-3.6-.2 0-1.6 1.5-3.3 3.2zM1018 1923.5c1.3 1.4 2.6 2.5 2.8 2.5.3 0-.5-1.1-1.8-2.5s-2.6-2.5-2.8-2.5c-.3 0 .5 1.1 1.8 2.5zm1170.9.2-2.4 2.8 2.8-2.4c1.5-1.4 2.7-2.6 2.7-2.8 0-.8-.8-.1-3.1 2.4zm-897.9 45-14.5 14.8 14.8-14.5c8.1-8 14.7-14.6 14.7-14.7 0-.8-1.6.7-15 14.4zm626.5 1.3c7.7 7.7 14.2 14 14.5 14 .2 0-5.8-6.3-13.5-14s-14.2-14-14.5-14c-.2 0 5.8 6.3 13.5 14zm235-9.8-4 4.3 4.3-4c3.9-3.6 4.7-4.5 3.9-4.5-.2 0-2.1 1.9-4.2 4.2zm-1097 .8c2.1 2.2 4.1 4 4.4 4 .3 0-1.3-1.8-3.4-4-2.1-2.2-4.1-4-4.4-4-.3 0 1.3 1.8 3.4 4zm14 13c1 1.1 2 2 2.3 2 .3 0-.3-.9-1.3-2s-2-2-2.3-2c-.3 0 .3.9 1.3 2zm1068.4-.3c-1.3 1.6-1.2 1.7.4.4 1.6-1.3 2.1-2.1 1.3-2.1-.2 0-1 .8-1.7 1.7zm-1060.4 7.3c1 1.1 2 2 2.3 2 .3 0-.3-.9-1.3-2s-2-2-2.3-2c-.3 0 .3.9 1.3 2zm1051.9.2-1.9 2.3 2.3-1.9c1.2-1.1 2.2-2.1 2.2-2.3 0-.8-.8-.2-2.6 1.9zm-1045.4 5.2c0 .2.8 1 1.8 1.7 1.5 1.3 1.6 1.2.3-.4s-2.1-2.1-2.1-1.3zm1037.9 1.3c-1.3 1.6-1.2 1.7.4.4 1.6-1.3 2.1-2.1 1.3-2.1-.2 0-1 .8-1.7 1.7zm-1025.9 8.7c0 .2.8 1 1.8 1.7 1.5 1.3 1.6 1.2.3-.4s-2.1-2.1-2.1-1.3zm1013.9 1.3c-1.3 1.6-1.2 1.7.4.4 1.6-1.3 2.1-2.1 1.3-2.1-.2 0-1 .8-1.7 1.7zm-874.4 25.5-13 13.3 13.3-13c7.2-7.1 13.2-13.1 13.2-13.2 0-.8-1.5.6-13.5 12.9zm740 3.8c7.7 7.7 14.2 14 14.5 14 .2 0-5.8-6.3-13.5-14s-14.2-14-14.5-14c-.2 0 5.8 6.3 13.5 14zm-782.5 37c-.9.6-1 1-.3 1 .6 0 1.5-.5 1.8-1 .8-1.2.4-1.2-1.5 0z"/><path fill="#999" d="M1188 692.3c-26.8 16.2-68.5 46.1-95 68.1-37.6 31.3-77.4 71.2-107.6 108.1-81.1 99.1-137.1 214.6-163.8 338.1-7 32.5-13.4 75.5-15.5 105.4-.6 8-1.3 16.9-1.5 19.7l-.5 5.3h60c54.6 0 59.9-.1 59.9-1.6 0-5.9 3.6-39.3 6-56.5 16.4-114.7 62.4-223.5 133.8-316.8 30.8-40.2 71.8-82.5 109-112.5l7.3-5.9 28.7 28.4c15.8 15.7 66.5 65.6 112.7 110.9 46.2 45.4 122.9 120.7 170.5 167.5 47.6 46.7 92.2 90.6 99.2 97.4l12.8 12.4 17.7-17.4c9.8-9.5 54-52.9 98.2-96.4 44.2-43.4 82.5-80.9 85.2-83.3 2.7-2.4 4.9-4.7 4.9-5.1 0-1.2-21.8-14-35.6-20.9-22.9-11.4-44.9-19.9-69.5-26.8l-13.1-3.6-9.7 9.4c-5.3 5.1-24.8 24.3-43.3 42.6-18.5 18.3-34.1 33.2-34.8 33.2-.6 0-27.5-26-59.8-57.7-32.3-31.8-84.8-83.4-116.7-114.8-31.9-31.4-84.1-82.6-116-113.9-31.9-31.4-71.5-70.4-88-86.8l-30-29.8-5.5 3.3zm729.3 92.5-97.1 95.5 24.1 12.2c30.3 15.1 60.9 33.7 79 47.8l3.9 3 26.1-25.9c14.4-14.2 37.1-36.7 50.4-49.8l24.2-23.9 7.3 5.9c13.7 11.1 34.3 29.8 51.4 46.9 103.6 103.5 171.6 239.9 191.8 385 2.1 15.3 5.6 48.7 5.6 53.9 0 1.5 5.3 1.6 59.9 1.6h60l-.5-5.3c-.2-2.8-.9-11.7-1.5-19.7-3.5-48.7-13.9-105.8-28.5-156.7-53-185.5-173.3-346.8-337.9-453-9.3-6-17.9-11.4-19-12-1.8-.9-12.8 9.6-99.2 94.5zM804.6 1422.2c.2 2.9.9 11.8 1.5 19.8 2.2 31 9.1 77 16.4 109.5 20.2 90.1 55 174.8 103.3 251.2 5.3 8.3 9.9 15 10.2 14.8.4-.2.7.2.7.8 0 1.7 7.9 13.4 21.6 32.2 48.3 65.9 108 125.5 173.9 173.5 21.4 15.6 58.5 40 60.9 40 .6 0 38.9-37.3 85.2-82.8 46.3-45.6 90-88.4 97-95.2l12.8-12.4-17.8-8.6c-29.2-14.2-53.3-28.3-78.2-45.9l-11.4-8-50.4 49.5-50.3 49.6-6.7-5.4c-93.6-75.9-168.1-180.8-209.7-295.5-21.6-59.5-33.1-113.9-39.2-184.6l-.6-7.7H804.1l.5 5.2zm1479.4-3.6c0 5.2-3.5 38.6-5.6 53.9-16.2 116.4-63.1 227.5-135.8 321.5-30.3 39.2-71.1 81.1-107.4 110.4l-7.3 5.9-22.2-22c-17.9-17.8-322.9-317.5-385.4-378.7l-16.3-15.9-12.7 12.4c-26.6 25.7-192.8 189.3-193.1 190-.4 1 21.2 13.6 35.4 20.7 22.9 11.5 44.9 19.9 69.5 26.8l13.2 3.6 12.1-11.9c6.6-6.5 26.1-25.7 43.3-42.6 17.1-16.9 31.6-30.7 32.1-30.7.9 0 19.6 18.2 129.7 126.5 217.2 213.6 279.9 275 280.7 275.3 2.5 1 46.8-28.3 74.8-49.7 115-87.5 206.2-207.7 259.3-341.6 29-73.1 48.2-155.7 53.6-230.5.6-8 1.3-16.9 1.5-19.8l.5-5.2h-60c-54.6 0-59.9.1-59.9 1.6z"/><path fill="#99C" d="M1455 918.3c0 .2 1.5 1.6 3.3 3.3l3.2 2.9-2.9-3.3c-2.8-3-3.6-3.7-3.6-2.9zm62 61.2c1.9 1.9 3.6 3.5 3.9 3.5.3 0-1-1.6-2.9-3.5s-3.6-3.5-3.9-3.5c-.3 0 1 1.6 2.9 3.5zm82.3-2.8c2.6.2 6.8.2 9.5 0 2.6-.2.4-.3-4.8-.3s-7.4.1-4.7.3zm-286.3 26.6c0 .2 1.5 1.6 3.3 3.3l3.2 2.9-2.9-3.3c-2.8-3-3.6-3.7-3.6-2.9zm-229.9 360.3c0 1.1.3 1.4.6.6.3-.7.2-1.6-.1-1.9-.3-.4-.6.2-.5 1.3zm0 27c0 1.1.3 1.4.6.6.3-.7.2-1.6-.1-1.9-.3-.4-.6.2-.5 1.3zm762.9 312.7c0 .2 1.5 1.6 3.3 3.3l3.2 2.9-2.9-3.3c-2.8-3-3.6-3.7-3.6-2.9zm-599 53.1c0 .2.8 1 1.8 1.7 1.5 1.3 1.6 1.2.3-.4s-2.1-2.1-2.1-1.3zm655 1.9c0 .2 1.5 1.6 3.3 3.3l3.2 2.9-2.9-3.3c-2.8-3-3.6-3.7-3.6-2.9zm-302.7 19.4c2.6.2 6.8.2 9.5 0 2.6-.2.4-.3-4.8-.3s-7.4.1-4.7.3zm93.7-.4c0 .2 1.5 1.6 3.3 3.3l3.2 2.9-2.9-3.3c-2.8-3-3.6-3.7-3.6-2.9zm60 59c0 .2 1.5 1.6 3.3 3.3l3.2 2.9-2.9-3.3c-2.8-3-3.6-3.7-3.6-2.9z"/><path fill="#CCF" d="M1474.5 938c1 1.1 2 2 2.3 2 .3 0-.3-.9-1.3-2s-2-2-2.3-2c-.3 0 .3.9 1.3 2zm-175 52c1 1.1 2 2 2.3 2 .3 0-.3-.9-1.3-2s-2-2-2.3-2c-.3 0 .3.9 1.3 2zm56.5 55.5c1.3 1.4 2.6 2.5 2.8 2.5.3 0-.5-1.1-1.8-2.5s-2.6-2.5-2.8-2.5c-.3 0 .5 1.1 1.8 2.5zm535 53c1.3 1.4 2.6 2.5 2.8 2.5.3 0-.5-1.1-1.8-2.5s-2.6-2.5-2.8-2.5c-.3 0 .5 1.1 1.8 2.5zm-576.1 1.2-2.4 2.8 2.8-2.4c1.5-1.4 2.7-2.6 2.7-2.8 0-.8-.8-.1-3.1 2.4zm.1 554.8c1.3 1.4 2.6 2.5 2.8 2.5.3 0-.5-1.1-1.8-2.5s-2.6-2.5-2.8-2.5c-.3 0 .5 1.1 1.8 2.5zm572.9 4.2-2.4 2.8 2.8-2.4c2.5-2.3 3.2-3.1 2.4-3.1-.2 0-1.4 1.2-2.8 2.7zm-23.4 63.3c1 1.1 2 2 2.3 2 .3 0-.3-.9-1.3-2s-2-2-2.3-2c-.3 0 .3.9 1.3 2zm56 55c1 1.1 2 2 2.3 2 .3 0-.3-.9-1.3-2s-2-2-2.3-2c-.3 0 .3.9 1.3 2zm-181.5 45.5c1.3 1.4 2.6 2.5 2.8 2.5.3 0-.5-1.1-1.8-2.5s-2.6-2.5-2.8-2.5c-.3 0 .5 1.1 1.8 2.5z"/><path fill="#CFF" d="M1477 940.4c0 .2.8 1 1.8 1.7 1.5 1.3 1.6 1.2.3-.4s-2.1-2.1-2.1-1.3zm-182 45c0 .2.8 1 1.8 1.7 1.5 1.3 1.6 1.2.3-.4s-2.1-2.1-2.1-1.3zm591 108c0 .2.8 1 1.8 1.7 1.5 1.3 1.6 1.2.3-.4s-2.1-2.1-2.1-1.3zm-568 564c0 .2.8 1 1.8 1.7 1.5 1.3 1.6 1.2.3-.4s-2.1-2.1-2.1-1.3zm565.9 5.3c-1.3 1.6-1.2 1.7.4.4.9-.7 1.7-1.5 1.7-1.7 0-.8-.8-.3-2.1 1.3zm-16.9 61.7c0 .2.8 1 1.8 1.7 1.5 1.3 1.6 1.2.3-.4s-2.1-2.1-2.1-1.3zm56 55c0 .2.8 1 1.8 1.7 1.5 1.3 1.6 1.2.3-.4s-2.1-2.1-2.1-1.3zm-189 38c0 .2.8 1 1.8 1.7 1.5 1.3 1.6 1.2.3-.4s-2.1-2.1-2.1-1.3z"/><path fill="#9CC" d="M1463 926.5c1.3 1.4 2.6 2.5 2.8 2.5.3 0-.5-1.1-1.8-2.5s-2.6-2.5-2.8-2.5c-.3 0 .5 1.1 1.8 2.5zm-153 74c1.3 1.4 2.6 2.5 2.8 2.5.3 0-.5-1.1-1.8-2.5s-2.6-2.5-2.8-2.5c-.3 0 .5 1.1 1.8 2.5zm544 711c1.3 1.4 2.6 2.5 2.8 2.5.3 0-.5-1.1-1.8-2.5s-2.6-2.5-2.8-2.5c-.3 0 .5 1.1 1.8 2.5zm56 55c1.3 1.4 2.6 2.5 2.8 2.5.3 0-.5-1.1-1.8-2.5s-2.6-2.5-2.8-2.5c-.3 0 .5 1.1 1.8 2.5zm-220 8c1.3 1.4 2.6 2.5 2.8 2.5.3 0-.5-1.1-1.8-2.5s-2.6-2.5-2.8-2.5c-.3 0 .5 1.1 1.8 2.5zm60 59c1.3 1.4 2.6 2.5 2.8 2.5.3 0-.5-1.1-1.8-2.5s-2.6-2.5-2.8-2.5c-.3 0 .5 1.1 1.8 2.5z"/><path fill="#699" d="M1452 915.5c1.3 1.4 2.6 2.5 2.8 2.5.3 0-.5-1.1-1.8-2.5s-2.6-2.5-2.8-2.5c-.3 0 .5 1.1 1.8 2.5zm59 58c1.3 1.4 2.6 2.5 2.8 2.5.3 0-.5-1.1-1.8-2.5s-2.6-2.5-2.8-2.5c-.3 0 .5 1.1 1.8 2.5zm81.8 3.2c.7.3 1.6.2 1.9-.1.4-.3-.2-.6-1.3-.5-1.1 0-1.4.3-.6.6zm21 0c.7.3 1.6.2 1.9-.1.4-.3-.2-.6-1.3-.5-1.1 0-1.4.3-.6.6zm-292.8 34.8c1.3 1.4 2.6 2.5 2.8 2.5.3 0-.5-1.1-1.8-2.5s-2.6-2.5-2.8-2.5c-.3 0 .5 1.1 1.8 2.5zm-117.7 360c0 2.7.2 3.8.4 2.2.2-1.5.2-3.7 0-5-.2-1.2-.4 0-.4 2.8zm0 11c0 2.7.2 3.8.4 2.2.2-1.5.2-3.7 0-5-.2-1.2-.4 0-.4 2.8zm640.2 318.5c1 1.1 2 2 2.3 2 .3 0-.3-.9-1.3-2s-2-2-2.3-2c-.3 0 .3.9 1.3 2zm55.5 54.5c1.3 1.4 2.6 2.5 2.8 2.5.3 0-.5-1.1-1.8-2.5s-2.6-2.5-2.8-2.5c-.3 0 .5 1.1 1.8 2.5zm-306.2 22.2c.7.3 1.6.2 1.9-.1.4-.3-.2-.6-1.3-.5-1.1 0-1.4.3-.6.6zm21 0c.7.3 1.6.2 1.9-.1.4-.3-.2-.6-1.3-.5-1.1 0-1.4.3-.6.6zm85.2 5.6c0 .2 1.5 1.6 3.3 3.3l3.2 2.9-2.9-3.3c-2.8-3-3.6-3.7-3.6-2.9zm60 59c0 .2 1.5 1.6 3.3 3.3l3.2 2.9-2.9-3.3c-2.8-3-3.6-3.7-3.6-2.9z"/><path fill="#669" d="M1444 907.3c0 .2 1.5 1.6 3.3 3.3l3.2 2.9-2.9-3.3c-2.8-3-3.6-3.7-3.6-2.9zm62 61.2c1.3 1.4 2.6 2.5 2.8 2.5.3 0-.5-1.1-1.8-2.5s-2.6-2.5-2.8-2.5c-.3 0 .5 1.1 1.8 2.5zm458 32.9c0 .2.8 1 1.8 1.7 1.5 1.3 1.6 1.2.3-.4s-2.1-2.1-2.1-1.3zm-638 15.1c1.3 1.4 2.6 2.5 2.8 2.5.3 0-.5-1.1-1.8-2.5s-2.6-2.5-2.8-2.5c-.3 0 .5 1.1 1.8 2.5zm652.5-.5c1 1.1 2 2 2.3 2 .3 0-.3-.9-1.3-2s-2-2-2.3-2c-.3 0 .3.9 1.3 2zm-895.1 361c0 5.8.1 8.1.3 5.2.2-2.8.2-7.6 0-10.5-.2-2.8-.3-.5-.3 5.3zm810.6 373.5c1.3 1.4 2.6 2.5 2.8 2.5.3 0-.5-1.1-1.8-2.5s-2.6-2.5-2.8-2.5c-.3 0 .5 1.1 1.8 2.5zm-187 41c1.3 1.4 2.6 2.5 2.8 2.5.3 0-.5-1.1-1.8-2.5s-2.6-2.5-2.8-2.5c-.3 0 .5 1.1 1.8 2.5zm60 59c1.3 1.4 2.6 2.5 2.8 2.5.3 0-.5-1.1-1.8-2.5s-2.6-2.5-2.8-2.5c-.3 0 .5 1.1 1.8 2.5z"/><path fill="#369" d="M1594.8 856.7c1.8.2 4.5.2 6 0s0-.4-3.3-.4-4.5.2-2.7.4zm13 0c1.8.2 4.5.2 6 0s0-.4-3.3-.4-4.5.2-2.7.4zM1438 901.3c0 .2 1.5 1.6 3.3 3.3l3.2 2.9-2.9-3.3c-2.8-3-3.6-3.7-3.6-2.9zm62 61.2c1.9 1.9 3.6 3.5 3.9 3.5.3 0-1-1.6-2.9-3.5s-3.6-3.5-3.9-3.5c-.3 0 1 1.6 2.9 3.5zm-259.1 41.2c-1.3 1.6-1.2 1.7.4.4 1.6-1.3 2.1-2.1 1.3-2.1-.2 0-1 .8-1.7 1.7zm730.1 4.6c0 .2 1.5 1.6 3.3 3.3l3.2 2.9-2.9-3.3c-2.8-3-3.6-3.7-3.6-2.9zm-741.6 6.9-2.9 3.3 3.3-2.9c1.7-1.7 3.2-3.1 3.2-3.3 0-.8-.8-.1-3.6 2.9zm99.6 4.1c0 .2 1.5 1.6 3.3 3.3l3.2 2.9-2.9-3.3c-2.8-3-3.6-3.7-3.6-2.9zm-100 719.2c1.3 1.4 2.6 2.5 2.8 2.5.3 0-.5-1.1-1.8-2.5s-2.6-2.5-2.8-2.5c-.3 0 .5 1.1 1.8 2.5zm747.4 1.7-2.9 3.3 3.3-2.9c3-2.8 3.7-3.6 2.9-3.6-.2 0-1.6 1.5-3.3 3.2zm-90.4 2.1c0 .2 1.5 1.6 3.3 3.3l3.2 2.9-2.9-3.3c-2.8-3-3.6-3.7-3.6-2.9zm-173 55.2c1.9 1.9 3.6 3.5 3.9 3.5.3 0-1-1.6-2.9-3.5s-3.6-3.5-3.9-3.5c-.3 0 1 1.6 2.9 3.5zm60 59c1.9 1.9 3.6 3.5 3.9 3.5.3 0-1-1.6-2.9-3.5s-3.6-3.5-3.9-3.5c-.3 0 1 1.6 2.9 3.5zm-178.2 41.2c1.8.2 4.5.2 6 0s0-.4-3.3-.4-4.5.2-2.7.4zm13 0c1.8.2 4.5.2 6 0s0-.4-3.3-.4-4.5.2-2.7.4z"/><path fill="#366" d="M1435 898.4c0 .2.8 1 1.8 1.7 1.5 1.3 1.6 1.2.3-.4s-2.1-2.1-2.1-1.3zm59 58c0 .2.8 1 1.8 1.7 1.5 1.3 1.6 1.2.3-.4s-2.1-2.1-2.1-1.3zm-259.6 53.8-1.9 2.3 2.3-1.9c2.1-1.8 2.7-2.6 1.9-2.6-.2 0-1.2 1-2.3 2.2zm100.6 15.2c0 .2.8 1 1.8 1.7 1.5 1.3 1.6 1.2.3-.4s-2.1-2.1-2.1-1.3zm548 714c0 .2.8 1 1.8 1.7 1.5 1.3 1.6 1.2.3-.4s-2.1-2.1-2.1-1.3zm-651 2c0 .2.8 1 1.8 1.7 1.5 1.3 1.6 1.2.3-.4s-2.1-2.1-2.1-1.3zm739.9 3.3c-1.3 1.6-1.2 1.7.4.4.9-.7 1.7-1.5 1.7-1.7 0-.8-.8-.3-2.1 1.3zm-254.9 56.7c0 .2.8 1 1.8 1.7 1.5 1.3 1.6 1.2.3-.4s-2.1-2.1-2.1-1.3zm60 59c0 .2.8 1 1.8 1.7 1.5 1.3 1.6 1.2.3-.4s-2.1-2.1-2.1-1.3z"/><path fill="#336" d="M1432 895.5c1.3 1.4 2.6 2.5 2.8 2.5.3 0-.5-1.1-1.8-2.5s-2.6-2.5-2.8-2.5c-.3 0 .5 1.1 1.8 2.5zm59.5 58.5c1 1.1 2 2 2.3 2 .3 0-.3-.9-1.3-2s-2-2-2.3-2c-.3 0 .3.9 1.3 2zm-208 21c1 1.1 2 2 2.3 2 .3 0-.3-.9-1.3-2s-2-2-2.3-2c-.3 0 .3.9 1.3 2zm56.5 55.5c1.3 1.4 2.6 2.5 2.8 2.5.3 0-.5-1.1-1.8-2.5s-2.6-2.5-2.8-2.5c-.3 0 .5 1.1 1.8 2.5zm540.5 706.5c1 1.1 2 2 2.3 2 .3 0-.3-.9-1.3-2s-2-2-2.3-2c-.3 0 .3.9 1.3 2zm-643.5 9.5c1.3 1.4 2.6 2.5 2.8 2.5.3 0-.5-1.1-1.8-2.5s-2.6-2.5-2.8-2.5c-.3 0 .5 1.1 1.8 2.5zm485 60c1.3 1.4 2.6 2.5 2.8 2.5.3 0-.5-1.1-1.8-2.5s-2.6-2.5-2.8-2.5c-.3 0 .5 1.1 1.8 2.5zm58 56.9c0 .2.8 1 1.8 1.7 1.5 1.3 1.6 1.2.3-.4s-2.1-2.1-2.1-1.3z"/><path fill="#036" d="M1573.8 857.7c.6.2 1.8.2 2.5 0 .6-.3.1-.5-1.3-.5-1.4 0-1.9.2-1.2.5zm58 0c.7.3 1.6.2 1.9-.1.4-.3-.2-.6-1.3-.5-1.1 0-1.4.3-.6.6zM1427 890.5c1.3 1.4 2.6 2.5 2.8 2.5.3 0-.5-1.1-1.8-2.5s-2.6-2.5-2.8-2.5c-.3 0 .5 1.1 1.8 2.5zm51 50c6.3 6.3 11.7 11.5 12 11.5.2 0-4.7-5.2-11-11.5s-11.7-11.5-12-11.5c-.2 0 4.7 5.2 11 11.5zm106.8 36.2c.7.3 1.6.2 1.9-.1.4-.3-.2-.6-1.3-.5-1.1 0-1.4.3-.6.6zM1296 987.2c5.7 6 10.6 10.8 10.7 10.8.8 0-.5-1.3-10.4-11l-10.8-10.5 10.5 10.7zm642-8.8c0 .2.8 1 1.8 1.7 1.5 1.3 1.6 1.2.3-.4s-2.1-2.1-2.1-1.3zm-676.1 6.3c-1.3 1.6-1.2 1.7.4.4.9-.7 1.7-1.5 1.7-1.7 0-.8-.8-.3-2.1 1.3zm-9.5 8.5-1.9 2.3 2.3-1.9c2.1-1.8 2.7-2.6 1.9-2.6-.2 0-1.2 1-2.3 2.2zm703.1.8c1 1.1 2 2 2.3 2 .3 0-.3-.9-1.3-2s-2-2-2.3-2c-.3 0 .3.9 1.3 2zm30.5 30.5c1.3 1.4 2.6 2.5 2.8 2.5.3 0-.5-1.1-1.8-2.5s-2.6-2.5-2.8-2.5c-.3 0 .5 1.1 1.8 2.5zm-766.1 1.2-2.4 2.8 2.8-2.4c2.5-2.3 3.2-3.1 2.4-3.1-.2 0-1.4 1.2-2.8 2.7zm133.1 17.5c5.7 6 10.6 10.8 10.7 10.8.8 0-.5-1.3-10.4-11l-10.8-10.5 10.5 10.7zm641-9.8c0 .2.8 1 1.8 1.7 1.5 1.3 1.6 1.2.3-.4s-2.1-2.1-2.1-1.3zm-133 36c0 .2.8 1 1.8 1.7 1.5 1.3 1.6 1.2.3-.4s-2.1-2.1-2.1-1.3zm-523.1 7.3c-1.3 1.6-1.2 1.7.4.4.9-.7 1.7-1.5 1.7-1.7 0-.8-.8-.3-2.1 1.3zm-18.4 17.5-9 9.3 9.3-9c8.5-8.3 9.7-9.5 8.9-9.5-.1 0-4.3 4.2-9.2 9.2zm568-.2c4.4 4.4 8.2 8 8.5 8 .2 0-3.1-3.6-7.5-8s-8.2-8-8.5-8c-.2 0 3.1 3.6 7.5 8zm-584.1 17.2-1.9 2.3 2.3-1.9c2.1-1.8 2.7-2.6 1.9-2.6-.2 0-1.2 1-2.3 2.2zm600.1-.2c1 1.1 2 2 2.3 2 .3 0-.3-.9-1.3-2s-2-2-2.3-2c-.3 0 .3.9 1.3 2zm-606.6 7.7c-1.3 1.6-1.2 1.7.4.4 1.6-1.3 2.1-2.1 1.3-2.1-.2 0-1 .8-1.7 1.7zm612.1-1.3c0 .2.8 1 1.8 1.7 1.5 1.3 1.6 1.2.3-.4s-2.1-2.1-2.1-1.3zm109.8 143.3c17.2.2 45.1.2 62 0 16.9-.1 2.8-.2-31.3-.2s-47.9.1-30.7.2zm-934.6 89.3c0 1.4.2 1.9.5 1.2.2-.6.2-1.8 0-2.5-.3-.6-.5-.1-.5 1.3zm118.9 10.6c0 1.1.3 1.4.6.6.3-.7.2-1.6-.1-1.9-.3-.4-.6.2-.5 1.3zm0 33c0 1.1.3 1.4.6.6.3-.7.2-1.6-.1-1.9-.3-.4-.6.2-.5 1.3zm-118.9 10.4c0 1.4.2 1.9.5 1.2.2-.6.2-1.8 0-2.5-.3-.6-.5-.1-.5 1.3zm934.6 89.7c17.2.2 45.1.2 62 0 16.9-.1 2.8-.2-31.3-.2s-47.9.1-30.7.2zM1296 1634.4c0 .2.8 1 1.8 1.7 1.5 1.3 1.6 1.2.3-.4s-2.1-2.1-2.1-1.3zm6 7c0 .2.8 1 1.8 1.7 1.5 1.3 1.6 1.2.3-.4s-2.1-2.1-2.1-1.3zm601.4 1.8-1.9 2.3 2.3-1.9c2.1-1.8 2.7-2.6 1.9-2.6-.2 0-1.2 1-2.3 2.2zm-584.4 16.3c4.7 4.7 8.7 8.5 9 8.5.2 0-3.3-3.8-8-8.5s-8.7-8.5-9-8.5c-.2 0 3.3 3.8 8 8.5zm569 0c-4.1 4.1-7.2 7.5-6.9 7.5.2 0 3.8-3.4 7.9-7.5 4.1-4.1 7.2-7.5 6.9-7.5-.2 0-3.8 3.4-7.9 7.5zm-551 16.9c0 .2.8 1 1.8 1.7 1.5 1.3 1.6 1.2.3-.4s-2.1-2.1-2.1-1.3zm524.9 7.3c-1.3 1.6-1.2 1.7.4.4.9-.7 1.7-1.5 1.7-1.7 0-.8-.8-.3-2.1 1.3zm6.1 40.5c5.7 6 10.6 10.8 10.7 10.8.8 0-.5-1.3-10.4-11l-10.8-10.5 10.5 10.7zm126.9-4.5c-1.3 1.6-1.2 1.7.4.4 1.6-1.3 2.1-2.1 1.3-2.1-.2 0-1 .8-1.7 1.7zm-774.9 8.8c1.3 1.4 2.6 2.5 2.8 2.5.3 0-.5-1.1-1.8-2.5s-2.6-2.5-2.8-2.5c-.3 0 .5 1.1 1.8 2.5zm766.9.2-2.4 2.8 2.8-2.4c1.5-1.4 2.7-2.6 2.7-2.8 0-.8-.8-.1-3.1 2.4zm-734.4 32.3c1 1.1 2 2 2.3 2 .3 0-.3-.9-1.3-2s-2-2-2.3-2c-.3 0 .3.9 1.3 2zm701.9.2-1.9 2.3 2.3-1.9c2.1-1.8 2.7-2.6 1.9-2.6-.2 0-1.2 1-2.3 2.2zm-40.4 8.1c0 .1 3.5 3.6 7.8 7.7l7.7 7.5-7.5-7.8c-6.9-7.1-8-8.2-8-7.4zm-329.2 8.4c.7.3 1.6.2 1.9-.1.4-.3-.2-.6-1.3-.5-1.1 0-1.4.3-.6.6zm37 0c.7.3 1.6.2 1.9-.1.4-.3-.2-.6-1.3-.5-1.1 0-1.4.3-.6.6zm113.7 42.3c6 6 11.2 11 11.5 11 .2 0-4.5-5-10.5-11-6-6.1-11.2-11-11.5-11-.2 0 4.5 4.9 10.5 11zm-161.7 76.7c.6.2 1.8.2 2.5 0 .6-.3.1-.5-1.3-.5-1.4 0-1.9.2-1.2.5zm58 0c.7.3 1.6.2 1.9-.1.4-.3-.2-.6-1.3-.5-1.1 0-1.4.3-.6.6z"/><path fill="#006" d="M1566 858.1c-33.2 2.4-69.3 8.7-101 17.5-14.5 4-37.2 11.3-38.3 12.3-.4.4 21.1 22.2 47.7 48.4l48.4 47.7 14.8-2.5c25.6-4.1 36.6-5 66.4-4.9 29.8 0 41.1.8 66.6 5 105.4 17.1 202.9 79.2 263.5 167.7 21.5 31.4 41.8 72.3 51.1 102.9l2.3 7.8H2111l-.6-2.8c-42.4-176-172.9-318.2-343.6-374.2-40.8-13.4-84.1-21.9-127-25-16.9-1.2-56.9-1.1-73.8.1zm-299.7 123.4c-98.6 84.4-162 201.8-178.3 330-5.6 44.1-5.2 94.8 1.1 139 7.7 54.3 23.3 104.8 47.9 155 26.1 53.3 56.8 96.2 99 138.6 56.3 56.4 122 98 196.5 124.1 94 33.1 198.3 37.9 296 13.8 19-4.7 51.1-14.4 52.7-15.9.5-.4-21.1-22.2-47.8-48.5-40.7-40.1-48.9-47.7-50.7-47.2-4.2 1-27.2 4.5-38.7 5.7-15.1 1.8-64.9 1.8-80 0-69-7.7-126.4-28.4-182.8-65.8-117.2-77.6-185.3-213.8-177.4-354.6.7-11.6 2.1-27.3 3.1-34.7 14.8-102.3 66.8-193.5 147.2-257.7l10.6-8.5-42.4-41.6c-23.2-23-42.6-41.8-43-41.9-.5-.2-6.3 4.4-13 10.2zm718.9 520.3c-3.4 11.2-12.5 33.7-19.6 48.7-25.7 53.9-65.1 103.1-112.8 141.1l-9.7 7.7 34.7 34.1c53.7 52.7 50.9 50.2 52.9 48.4 26.9-22.7 42.2-37.3 59.3-56.4 34.1-38.1 58.7-74.4 81-119.9 17.2-35 30.4-71.6 39.4-108.8l.6-2.7h-123.5l-2.3 7.8z"/></svg>